<svg width="512" height="512" viewBox="0 0 512 512" fill="none" xmlns="http://www.w3.org/2000/svg">
  <!-- Fundo com o verde do seu sistema -->
  <rect width="512" height="512" rx="120" fill="#059669"/>
  
  <!-- Notas de dinheiro saindo da carteira -->
  <path d="M128 176V128C128 110.3 142.3 96 160 96H352C369.7 96 384 110.3 384 128V176" stroke="white" stroke-width="32" stroke-linecap="round" stroke-linejoin="round"/>
  
  <!-- Corpo da Carteira -->
  <path d="M416 176H96C78.3 176 64 190.3 64 208V384C64 401.7 78.3 416 96 416H416C433.7 416 448 401.7 448 384V208C448 190.3 433.7 176 416 176Z" stroke="white" stroke-width="32" stroke-linejoin="round"/>
  
  <!-- Fecho da carteira -->
  <path d="M352 240H448V352H352C321.1 352 296 326.9 296 296C296 265.1 321.1 240 352 240Z" fill="white"/>
  
  <!-- Botão/Moeda no fecho -->
  <circle cx="368" cy="296" r="16" fill="#059669"/>
</svg>
